#!OML:ASF E:\Steps\Project 1\Capture day 1\Session 2\Subject.ASF
:FULLY-SPECIFIED
:DEGREES
47
root 9.33257 16.4149 19.1611 -149.725 -3.02316 -180.192
lowerback -23.0504 -1.80747 -6.17592
upperback -1.39072 -1.14611 -0.508711
thorax 11.4858 -1.02225 2.56055
lowerneck -4.80746 -5.67074 -3.25395
upperneck -7.33445 -7.68961 10.4119
head -0.930831 -4.17213 3.87614
rclavicle -1.05356e-014 7.95139e-016
rhumerus -43.7323 -8.7002 -75.4275
rradius 26.5508
rwrist 3.13711
rhand -7.95582 -50.7977
rfingers 7.12502
rthumb 17.9513 -79.9893
lclavicle -1.05356e-014 7.95139e-016
lhumerus -39.8262 -19.1567 81.5553
lradius 29.1285
lwrist -1.84092
lhand -22.0613 -14.0334
lfingers 7.12502
lthumb 4.34957 15.9019
rfemur -29.113 12.9054 14.5418
rtibia 5.36327
rfoot -15.1947 -12.9086
rtoes -33.2342
lfemur -32.3062 -9.16384 -16.105
ltibia 12.0531
lfoot -9.18175 4.53045
ltoes -44.2197
48
root 9.34046 16.4128 19.1705 -149.394 -3.12393 -180.072
lowerback -23.0019 -1.7217 -6.04429
upperback -1.36586 -1.06218 -0.52281
thorax 11.4773 -0.973678 2.49788
lowerneck -5.08654 -5.76106 -3.04625
upperneck -7.4495 -7.83359 10.3456
head -0.920425 -4.25437 3.80292
rclavicle 1.51076e-014 2.38542e-014
rhumerus -44.2332 -8.78833 -75.0477
rradius 26.7378
rwrist 3.34557
rhand -7.58454 -50.5289
rfingers 7.12502
rthumb 18.3086 -79.6873
lclavicle 1.51076e-014 2.38542e-014
lhumerus -40.6363 -19.831 81.5704
lradius 29.9049
lwrist -1.58729
lhand -22.1256 -13.8028
lfingers 7.12502
lthumb 4.28748 16.1338
rfemur -29.6292 12.9265 14.6291
rtibia 5.59459
rfoot -15.2564 -12.938
rtoes -32.9451
lfemur -33.0263 -9.33457 -15.79
ltibia 12.6636
lfoot -9.4165 4.87844
ltoes -45.3751
49
root 9.34707 16.4089 19.1806 -149 -3.27378 -180.003
lowerback -22.3776 -1.6544 -5.86499
upperback -1.73672 -1.10498 -0.570063
thorax 10.7106 -0.971449 2.34297
lowerneck -5.22994 -5.88037 -2.90732
upperneck -7.15243 -8.00635 10.3741
head -0.791171 -4.32832 3.76641
rclavicle -1.39149e-015 3.18055e-015
rhumerus -45.3822 -8.60872 -74.7166
rradius 27.1005
rwrist 3.28584
rhand -7.4607 -50.4466
rfingers 7.12502
rthumb 18.4277 -79.5937
lclavicle -1.39149e-015 3.18055e-015
lhumerus -41.9347 -20.136 81.5905
lradius 30.5101
lwrist -1.67836
lhand -22.1992 -13.8909
lfingers 7.12502
lthumb 4.21638 16.0471
rfemur -30.2117 12.8069 14.6996
rtibia 5.84582
rfoot -15.2846 -12.9616
rtoes -32.8838
lfemur -33.8635 -9.58526 -15.4772
ltibia 13.3254
lfoot -9.6868 5.10983
ltoes -45.3707
50
root 9.35622 16.4072 19.1926 -148.637 -3.38963 -180.03
lowerback -22.5643 -1.72277 -5.93536
upperback -1.50037 -1.13282 -0.527172
thorax 11.0873 -0.991036 2.41689
lowerneck -5.52669 -5.87163 -2.80447
upperneck -7.5213 -8.01556 10.2536
head -0.868665 -4.35379 3.70557
rclavicle 3.57812e-015 1.27222e-014
rhumerus -45.711 -8.08114 -74.7095
rradius 27.7158
rwrist 2.52235
rhand -7.58597 -50.9764
rfingers 7.12502
rthumb 18.3072 -80.1349
lclavicle 3.57812e-015 1.27222e-014
lhumerus -42.0734 -20.34 81.468
lradius 30.782
lwrist -1.75377
lhand -22.3824 -14.343
lfingers 7.12502
lthumb 4.0395 15.5984
rfemur -30.9089 12.666 14.6533
rtibia 6.37015
rfoot -15.3861 -13.0473
rtoes -33.0629
lfemur -34.6868 -9.78091 -15.2975
ltibia 13.9741
lfoot -9.84091 5.34555
ltoes -45.9144
51
root 9.36814 16.4092 19.2041 -148.321 -3.45384 -180.136
lowerback -22.6181 -1.752 -6.14675
upperback -1.27795 -1.0787 -0.53395
thorax 11.3706 -0.976948 2.54457
lowerneck -5.78935 -5.87014 -2.73534
upperneck -7.85423 -8.032 10.1364
head -0.938527 -4.38016 3.65243
rclavicle -1.09332e-014 1.11319e-014
rhumerus -45.9741 -7.78469 -74.6285
rradius 28.0497
rwrist 1.81115
rhand -7.94165 -51.3047
rfingers 7.12502
rthumb 17.965 -80.4949
lclavicle -1.09332e-014 1.11319e-014
lhumerus -42.2863 -20.8525 81.4272
lradius 31.1499
lwrist -1.6771
lhand -22.6034 -15.1116
lfingers 7.12502
lthumb 3.82606 14.8338
rfemur -31.6712 12.5626 14.489
rtibia 7.13774
rfoot -15.6884 -13.1659
rtoes -33.1144
lfemur -35.4672 -9.83171 -15.2707
ltibia 14.6411
lfoot -9.99737 5.51465
ltoes -46.5949
52
root 9.37939 16.408 19.2192 -147.904 -3.51293 -180.228
lowerback -22.3465 -1.72989 -6.23248
upperback -1.34377 -1.04617 -0.615531
thorax 11.1424 -0.958724 2.51758
lowerneck -6.01693 -5.94759 -2.67861
upperneck -7.82881 -8.14878 10.1401
head -0.885322 -4.4384 3.62949
rclavicle 6.36111e-015 0
rhumerus -46.4837 -7.77955 -74.3934
rradius 28.1057
rwrist 1.58937
rhand -8.08502 -50.8731
rfingers 7.12502
rthumb 17.827 -80.076
lclavicle 6.36111e-015 0
lhumerus -43.0419 -21.4792 81.5024
lradius 31.7033
lwrist -1.50972
lhand -23.0247 -15.3974
lfingers 7.12502
lthumb 3.41929 14.555
rfemur -32.5773 12.3716 14.3384
rtibia 7.94473
rfoot -16.0353 -13.1737
rtoes -33.1428
lfemur -36.5111 -9.9107 -15.1721
ltibia 15.666
lfoot -10.4782 5.54922
ltoes -46.0393
53
root 9.38909 16.4035 19.2385 -147.435 -3.66057 -180.319
lowerback -22.0963 -1.79524 -6.30591
upperback -1.4176 -1.14012 -0.611445
thorax 10.9307 -1.00116 2.5394
lowerneck -6.26382 -5.96798 -2.67083
upperneck -7.75884 -8.18595 10.1035
head -0.819725 -4.45153 3.60188
rclavicle -6.36111e-015 -1.27222e-014
rhumerus -46.9723 -7.57929 -74.1556
rradius 28.294
rwrist 1.44023
rhand -8.01359 -50.8648
rfingers 7.12502
rthumb 17.8958 -80.0614
lclavicle -6.36111e-015 -1.27222e-014
lhumerus -43.6953 -21.6907 81.5549
lradius 32.1315
lwrist -1.52448
lhand -23.4525 -15.3009
lfingers 7.12502
lthumb 3.00611 14.6577
rfemur -33.5495 12.0119 14.2737
rtibia 8.77086
rfoot -16.3075 -13.1421
rtoes -33.5939
lfemur -37.7501 -10.261 -14.9123
ltibia 16.8862
lfoot -11.1026 5.61395
ltoes -44.2683
